<?xml version="1.0" encoding="utf-8"?>
<!-- Generator: Adobe Illustrator 27.5.0, SVG Export Plug-In . SVG Version: 6.00 Build 0)  -->
<svg version="1.1" xmlns="http://www.w3.org/2000/svg" xmlns:xlink="http://www.w3.org/1999/xlink" x="0px" y="0px"
	 viewBox="0 0 1122 1121.997" style="enable-background:new 0 0 1122 1121.997;" xml:space="preserve">
<g id="background">
	<g>
		<rect x="0" style="fill:#E5F5F9;" width="1122" height="1122"/>
		<circle style="opacity:0.05;fill:#2E4661;" cx="561" cy="561" r="454.545"/>
	</g>
</g>
<g id="object">
	<circle style="opacity:0.59;fill:#B3D1E2;" cx="559.497" cy="488.496" r="382.501"/>
	<g>
		<g>
			
				<ellipse transform="matrix(0.7071 -0.7071 0.7071 0.7071 -182.2326 543.5413)" style="fill:#F9A140;" cx="564.996" cy="491.745" rx="241.47" ry="241.47"/>
			<path style="opacity:0.1;fill:#272525;" d="M563.398,228.532C418.03,229.415,300.9,347.975,301.783,493.343
				c0.883,145.369,119.443,262.498,264.811,261.615c145.368-0.883,262.497-119.443,261.615-264.811
				C827.326,344.778,708.766,227.649,563.398,228.532z M566.326,710.746c-120.951,0.734-219.597-96.72-220.331-217.671
				c-0.734-120.951,96.72-219.596,217.671-220.331c120.951-0.734,219.597,96.72,220.331,217.671
				C784.732,611.366,687.277,710.011,566.326,710.746z"/>
			<path style="fill:#F4D242;" d="M563.234,201.532c-160.28,0.973-289.424,131.695-288.45,291.975
				c0.973,160.28,131.695,289.423,291.975,288.45c160.28-0.973,289.424-131.695,288.45-291.975
				C854.235,329.703,723.514,200.559,563.234,201.532z M566.462,733.21c-133.358,0.81-242.122-106.641-242.932-239.999
				c-0.81-133.358,106.642-242.122,239.999-242.932c133.358-0.81,242.122,106.642,242.932,239.999
				C807.271,623.636,699.82,732.401,566.462,733.21z"/>
		</g>
		<path style="fill:#F4D242;" d="M661.523,505.791c-7.15-9.418-18.045-16.72-32.672-21.905c9.024-5.189,15.81-11.786,20.359-19.791
			c4.544-8,6.789-17.34,6.724-28.019c-0.129-21.218-7.73-37.361-22.803-48.418c-15.069-11.061-36.93-16.505-65.584-16.332
			l-10.336,0.063c-0.058-9.612-0.117-19.225-0.175-28.837c-0.054-8.837-16.044-8.74-15.99,0.097
			c0.058,9.613,0.117,19.225,0.175,28.837l-10.394,0.063c-0.058-9.612-0.117-19.225-0.175-28.837
			c-0.053-8.837-16.044-8.74-15.99,0.097c0.058,9.612,0.117,19.225,0.175,28.837l-41.971,0.255
			c-4.597,0.028-8.104,1.304-10.521,3.818c-2.417,2.514-3.613,6.136-3.584,10.868c0.034,5.545,1.546,9.353,4.531,11.428
			c2.986,2.079,9.683,3.082,20.092,3.018l6.691-0.04l1.109,182.673l-6.691,0.041c-11.221,0.068-18.311,1.09-21.273,3.066
			c-2.961,1.981-4.423,5.676-4.39,11.081c0.03,4.863,1.234,8.506,3.613,10.924c2.379,2.417,5.933,3.614,10.665,3.585l43.189-0.262
			c0.058,9.612,0.117,19.225,0.175,28.837c0.054,8.837,16.044,8.74,15.99-0.097c-0.058-9.612-0.117-19.225-0.175-28.837
			l10.394-0.064c0.058,9.612,0.117,19.225,0.175,28.838c0.054,8.837,16.044,8.74,15.99-0.097
			c-0.058-9.612-0.117-19.225-0.175-28.837l5.265-0.032l17.438-0.106c14.866-0.09,26.352-1.004,34.449-2.745
			c8.102-1.737,15.448-4.52,22.048-8.346c11.046-6.555,19.577-14.918,25.597-25.092c6.025-10.175,8.997-21.409,8.923-33.712
			C672.302,527.215,668.678,515.209,661.523,505.791z M572.181,400.494c15.678-0.095,27.726,3.044,36.147,9.413
			c8.417,6.37,12.665,15.57,12.738,27.599c0.077,12.705-4.495,22.126-13.716,28.264c-9.221,6.138-23.433,9.265-42.621,9.382
			l-6.89,0.042c-0.151-24.87-0.302-49.74-0.453-74.609L572.181,400.494z M541.397,400.681c0.151,24.87,0.302,49.74,0.453,74.609
			l-10.393,0.064c-0.151-24.87-0.302-49.74-0.453-74.61L541.397,400.681z M532.112,583.418c-0.168-27.708-0.336-55.416-0.505-83.123
			l10.394-0.063c0.168,27.707,0.336,55.415,0.505,83.123L532.112,583.418z M621.688,573.241c-10.37,6.488-28.257,9.805-53.667,9.959
			l-9.524,0.058c-0.168-27.707-0.336-55.415-0.505-83.123l11.55-0.07c25.004-0.152,42.497,2.918,52.47,9.21
			c9.973,6.292,15.005,16.937,15.096,31.942C637.199,556.088,632.057,566.762,621.688,573.241z"/>
	</g>
	<g style="opacity:0.65;">
		<circle style="fill:#FFFFFF;" cx="773.996" cy="255.997" r="40"/>
		<g>
			<path style="fill:#FFFFFF;" d="M308.746,532.692c-0.185-1.282-0.366-2.564-0.542-3.847c0.417,3.102,0.833,6.203,1.25,9.304
				c-4.212-31.48-4.461-63.386-0.315-94.886c-0.417,3.101-0.834,6.203-1.25,9.304c3.825-28.276,11.163-55.978,22.197-82.304
				c-1.176,2.787-2.352,5.574-3.528,8.361c9.864-23.285,22.543-45.269,37.991-65.299c-1.824,2.361-3.648,4.722-5.473,7.084
				c14.198-18.255,30.57-34.681,48.869-48.828c-2.361,1.824-4.722,3.648-7.083,5.473c18.075-13.851,37.81-25.324,58.769-34.223
				c-2.787,1.176-5.574,2.352-8.361,3.528c23.303-9.774,47.803-16.243,72.836-19.62c-3.102,0.417-6.203,0.833-9.304,1.25
				c29.472-3.849,59.284-3.389,88.728,0.484c-3.101-0.417-6.203-0.833-9.304-1.25c23.563,3.19,46.752,8.517,69.467,15.524
				c18.229,5.623,38.114-6.485,43.054-24.445c5.176-18.818-6.23-37.435-24.445-43.054c-48.025-14.815-99.313-22.702-149.598-19.101
				c-46.133,3.304-90.768,15.417-131.574,37.358c-75.065,40.361-128.247,113.454-151.313,194.68
				c-15.124,53.258-16.436,108.622-8.569,163.118c1.219,8.447,9.071,16.809,16.085,20.917c8.083,4.735,17.936,6.013,26.97,3.528
				c8.749-2.406,16.334-8.261,20.917-16.085C310.425,550.773,310.158,542.471,308.746,532.692L308.746,532.692z"/>
		</g>
	</g>
	<g>
		
			<ellipse transform="matrix(0.7071 -0.7071 0.7071 0.7071 -591.0737 396.0196)" style="opacity:0.59;fill:#B3D1E2;" cx="182.501" cy="911.499" rx="140.501" ry="140.501"/>
		<g>
			<g>
				<circle style="fill:#F9A140;" cx="184.521" cy="912.692" r="88.697"/>
				<path style="opacity:0.1;fill:#272525;" d="M183.934,816.008c-53.397,0.324-96.421,43.874-96.097,97.271
					c0.324,53.397,43.874,96.421,97.271,96.097c53.397-0.324,96.421-43.874,96.097-97.271
					C280.881,858.708,237.331,815.684,183.934,816.008z M185.01,993.136c-44.428,0.27-80.663-35.527-80.932-79.955
					c-0.27-44.428,35.528-80.663,79.955-80.932c44.428-0.27,80.663,35.528,80.932,79.956
					C265.235,956.632,229.437,992.867,185.01,993.136z"/>
				<path style="fill:#F4D242;" d="M183.874,806.091C124.999,806.448,77.562,854.465,77.92,913.34
					c0.357,58.874,48.374,106.312,107.249,105.954c58.874-0.358,106.312-48.374,105.954-107.249
					C290.765,853.171,242.748,805.734,183.874,806.091z M185.06,1001.388c-48.985,0.298-88.937-39.172-89.234-88.157
					c-0.297-48.985,39.172-88.937,88.157-89.234c48.985-0.297,88.937,39.172,89.234,88.157
					C273.514,961.139,234.045,1001.091,185.06,1001.388z"/>
			</g>
			<path style="fill:#F4D242;" d="M219.978,917.852c-2.626-3.46-6.628-6.142-12.001-8.046c3.315-1.906,5.807-4.329,7.478-7.269
				c1.669-2.939,2.494-6.369,2.47-10.292c-0.047-7.794-2.839-13.724-8.376-17.785c-5.535-4.063-13.565-6.063-24.091-5.999
				l-3.797,0.023c-0.021-3.531-0.043-7.062-0.064-10.592c-0.02-3.246-5.893-3.211-5.874,0.035c0.021,3.531,0.043,7.062,0.064,10.593
				l-3.818,0.023c-0.021-3.531-0.043-7.062-0.064-10.592c-0.02-3.246-5.893-3.21-5.874,0.036c0.021,3.531,0.043,7.062,0.064,10.592
				l-15.417,0.094c-1.689,0.01-2.977,0.479-3.865,1.402c-0.888,0.924-1.327,2.254-1.316,3.992c0.012,2.037,0.568,3.435,1.665,4.198
				c1.097,0.764,3.557,1.132,7.38,1.109l2.458-0.015l0.408,67.1l-2.458,0.015c-4.122,0.025-6.726,0.4-7.814,1.126
				c-1.088,0.728-1.625,2.085-1.613,4.07c0.011,1.786,0.453,3.125,1.327,4.013c0.874,0.888,2.179,1.327,3.918,1.317l15.864-0.096
				c0.021,3.531,0.043,7.062,0.064,10.593c0.02,3.246,5.893,3.21,5.874-0.036c-0.021-3.531-0.043-7.062-0.064-10.592l3.818-0.023
				c0.021,3.531,0.043,7.062,0.064,10.593c0.02,3.246,5.893,3.21,5.874-0.036c-0.021-3.531-0.043-7.062-0.064-10.593l1.934-0.012
				l6.405-0.039c5.461-0.033,9.68-0.369,12.654-1.008c2.976-0.638,5.674-1.66,8.099-3.065c4.057-2.408,7.191-5.48,9.402-9.217
				c2.213-3.737,3.305-7.864,3.277-12.383C223.937,925.721,222.606,921.311,219.978,917.852z M187.16,879.174
				c5.759-0.035,10.184,1.118,13.278,3.458c3.092,2.34,4.652,5.719,4.679,10.138c0.028,4.667-1.651,8.127-5.038,10.382
				c-3.387,2.255-8.607,3.403-15.656,3.446l-2.531,0.015c-0.055-9.135-0.111-18.27-0.166-27.406L187.16,879.174z M175.852,879.243
				c0.055,9.135,0.111,18.271,0.166,27.406l-3.818,0.023c-0.055-9.135-0.111-18.271-0.167-27.406L175.852,879.243z M172.442,946.366
				c-0.062-10.177-0.124-20.355-0.185-30.533l3.818-0.023c0.062,10.178,0.124,20.355,0.185,30.533L172.442,946.366z
				 M205.345,942.628c-3.809,2.383-10.379,3.602-19.713,3.658l-3.498,0.021c-0.062-10.178-0.124-20.355-0.185-30.533l4.243-0.026
				c9.184-0.056,15.61,1.072,19.273,3.383c3.663,2.311,5.512,6.221,5.545,11.733C211.043,936.327,209.154,940.248,205.345,942.628z"
				/>
		</g>
		<g style="opacity:0.65;">
			
				<ellipse transform="matrix(0.7071 -0.7071 0.7071 0.7071 -507.6083 426.719)" style="fill:#FFFFFF;" cx="261.291" cy="826.097" rx="14.693" ry="14.693"/>
			<g>
				<path style="fill:#FFFFFF;" d="M90.395,927.733c-0.068-0.471-0.134-0.942-0.199-1.413c0.153,1.139,0.306,2.279,0.459,3.418
					c-1.547-11.563-1.639-23.283-0.116-34.854c-0.153,1.139-0.306,2.278-0.459,3.418c1.405-10.386,4.101-20.562,8.153-30.232
					c-0.432,1.024-0.864,2.047-1.296,3.071c3.623-8.553,8.281-16.628,13.955-23.986c-0.67,0.867-1.34,1.735-2.01,2.602
					c5.215-6.705,11.229-12.739,17.951-17.936c-0.867,0.67-1.735,1.34-2.602,2.01c6.639-5.088,13.888-9.302,21.587-12.571
					c-1.024,0.432-2.047,0.864-3.071,1.296c8.56-3.59,17.559-5.966,26.754-7.207c-1.139,0.153-2.279,0.306-3.418,0.459
					c10.826-1.414,21.776-1.245,32.592,0.178c-1.139-0.153-2.278-0.306-3.418-0.459c8.655,1.172,17.173,3.128,25.517,5.702
					c6.696,2.066,14-2.382,15.815-8.979c1.901-6.912-2.288-13.751-8.979-15.815c-17.641-5.442-36.48-8.339-54.951-7.016
					c-16.946,1.214-33.341,5.663-48.33,13.722c-27.573,14.826-47.108,41.674-55.58,71.51c-5.555,19.563-6.037,39.899-3.148,59.917
					c0.448,3.103,3.332,6.174,5.908,7.683c2.969,1.739,6.588,2.209,9.907,1.296c3.214-0.884,6-3.034,7.683-5.908
					C91.011,934.375,90.913,931.325,90.395,927.733L90.395,927.733z"/>
			</g>
		</g>
	</g>
	<g style="opacity:0.45;">
		
			<ellipse transform="matrix(0.2227 -0.9749 0.9749 0.2227 -589.0363 1278.8446)" style="opacity:0.59;fill:#B3D1E2;" cx="507.478" cy="1008.822" rx="75.501" ry="75.501"/>
		<g>
			<g>
				
					<ellipse transform="matrix(0.5256 -0.8508 0.8508 0.5256 -617.5236 911.5792)" style="fill:#F9A140;" cx="508.563" cy="1009.463" rx="47.663" ry="47.663"/>
				<path style="opacity:0.1;fill:#272525;" d="M508.247,957.508c-28.694,0.174-51.814,23.577-51.64,52.271
					c0.174,28.694,23.576,51.814,52.27,51.64s51.814-23.577,51.64-52.271C560.344,980.454,536.942,957.334,508.247,957.508z
					 M508.826,1052.691c-23.874,0.145-43.346-19.091-43.491-42.966c-0.145-23.874,19.091-43.346,42.966-43.491
					c23.874-0.145,43.346,19.091,43.491,42.966C551.936,1033.075,532.7,1052.546,508.826,1052.691z"/>
				<path style="fill:#F4D242;" d="M508.215,952.179c-31.637,0.192-57.129,25.995-56.936,57.632
					c0.192,31.637,25.995,57.129,57.632,56.937c31.637-0.192,57.129-25.995,56.937-57.632
					C565.655,977.478,539.852,951.987,508.215,952.179z M508.852,1057.125c-26.323,0.16-47.792-21.05-47.952-47.373
					c-0.16-26.323,21.05-47.792,47.373-47.952c26.323-0.16,47.792,21.05,47.952,47.373
					C556.385,1035.497,535.176,1056.966,508.852,1057.125z"/>
			</g>
			<path style="fill:#F4D242;" d="M527.616,1012.236c-1.411-1.859-3.562-3.3-6.449-4.324c1.781-1.024,3.121-2.326,4.019-3.906
				c0.897-1.579,1.34-3.423,1.327-5.531c-0.025-4.188-1.526-7.375-4.501-9.557c-2.974-2.184-7.29-3.258-12.945-3.224l-2.04,0.012
				c-0.012-1.897-0.023-3.795-0.035-5.692c-0.011-1.744-3.167-1.725-3.156,0.019c0.012,1.897,0.023,3.795,0.035,5.692l-2.052,0.012
				c-0.012-1.897-0.023-3.795-0.035-5.692c-0.01-1.744-3.167-1.725-3.156,0.019c0.011,1.897,0.023,3.795,0.035,5.692l-8.285,0.05
				c-0.908,0.006-1.6,0.257-2.077,0.754c-0.477,0.496-0.713,1.211-0.707,2.145c0.007,1.094,0.305,1.846,0.895,2.256
				c0.589,0.411,1.911,0.608,3.966,0.596l1.321-0.008l0.219,36.057l-1.321,0.008c-2.215,0.013-3.615,0.215-4.199,0.605
				c-0.584,0.391-0.873,1.12-0.867,2.187c0.006,0.96,0.244,1.679,0.713,2.156c0.47,0.477,1.171,0.713,2.105,0.708l8.525-0.052
				c0.012,1.897,0.023,3.795,0.034,5.692c0.011,1.744,3.167,1.725,3.156-0.019c-0.012-1.897-0.023-3.795-0.035-5.692l2.052-0.013
				c0.012,1.897,0.023,3.795,0.035,5.692c0.011,1.744,3.167,1.725,3.156-0.019c-0.012-1.897-0.023-3.795-0.035-5.692l1.039-0.006
				l3.442-0.021c2.934-0.018,5.202-0.198,6.8-0.542c1.599-0.343,3.049-0.892,4.352-1.647c2.18-1.294,3.864-2.945,5.052-4.953
				c1.189-2.008,1.776-4.226,1.761-6.654C529.744,1016.464,529.029,1014.095,527.616,1012.236z M509.981,991.451
				c3.095-0.019,5.473,0.601,7.135,1.858c1.661,1.257,2.5,3.073,2.514,5.448c0.015,2.508-0.887,4.367-2.707,5.579
				c-1.82,1.212-4.625,1.829-8.413,1.852l-1.36,0.008c-0.03-4.909-0.06-9.818-0.089-14.727L509.981,991.451z M503.905,991.488
				c0.03,4.909,0.06,9.818,0.089,14.727l-2.052,0.013c-0.03-4.909-0.06-9.818-0.09-14.727L503.905,991.488z M502.072,1027.558
				c-0.033-5.469-0.066-10.938-0.1-16.408l2.052-0.013c0.033,5.469,0.066,10.938,0.1,16.407L502.072,1027.558z M519.753,1025.55
				c-2.047,1.281-5.578,1.935-10.593,1.966l-1.88,0.011c-0.033-5.469-0.066-10.938-0.1-16.407l2.28-0.014
				c4.935-0.03,8.388,0.576,10.357,1.818s2.962,3.343,2.98,6.305C522.815,1022.164,521.8,1024.271,519.753,1025.55z"/>
		</g>
		<g style="opacity:0.65;">
			
				<ellipse transform="matrix(0.1539 -0.9881 0.9881 0.1539 -486.2713 1357.9644)" style="fill:#FFFFFF;" cx="549.817" cy="962.929" rx="7.896" ry="7.895"/>
			<g>
				<path style="fill:#FFFFFF;" d="M457.982,1017.546c-0.036-0.253-0.072-0.506-0.107-0.759c0.082,0.612,0.165,1.224,0.247,1.837
					c-0.831-6.214-0.88-12.512-0.062-18.729c-0.082,0.612-0.164,1.224-0.247,1.837c0.755-5.581,2.203-11.049,4.381-16.246
					c-0.232,0.55-0.464,1.1-0.697,1.65c1.947-4.596,4.45-8.936,7.499-12.889c-0.36,0.466-0.72,0.932-1.08,1.398
					c2.802-3.603,6.034-6.846,9.646-9.638c-0.466,0.36-0.932,0.72-1.398,1.08c3.568-2.734,7.463-4.999,11.6-6.755
					c-0.55,0.232-1.1,0.464-1.65,0.697c4.6-1.929,9.436-3.206,14.377-3.873c-0.612,0.082-1.224,0.164-1.837,0.247
					c5.817-0.76,11.702-0.669,17.514,0.096c-0.612-0.082-1.224-0.164-1.836-0.247c4.651,0.63,9.228,1.681,13.712,3.064
					c3.598,1.11,7.523-1.28,8.498-4.825c1.022-3.714-1.23-7.389-4.825-8.498c-9.479-2.924-19.603-4.481-29.529-3.77
					c-9.106,0.652-17.916,3.043-25.971,7.374c-14.817,7.967-25.314,22.394-29.867,38.427c-2.985,10.512-3.244,21.441-1.691,32.197
					c0.241,1.667,1.791,3.318,3.175,4.129c1.596,0.935,3.54,1.187,5.324,0.696c1.727-0.475,3.224-1.631,4.129-3.175
					C458.314,1021.115,458.261,1019.476,457.982,1017.546L457.982,1017.546z"/>
			</g>
		</g>
	</g>
	<g>
		<g>
			<path style="fill:#DCC8B0;" d="M924.837,770.195c-21.219-4.329-43.594-7.813-63.359-2.318
				c-19.766,5.495-35.644,22.781-30.618,41.361c1.915,7.081,46.725,26.638,51.267,32.939c34.78,48.246,29.376,83.405,64.155,131.651
				c19.358-6.34,32.063-21.879,41.27-37.955c7.958-13.894,14.034-28.665,20.094-43.4c9.417-22.899,18.743-48.651,6.87-72.516
				C999.861,790.504,960.022,777.374,924.837,770.195z"/>
			<path style="fill:#EDD0B3;" d="M1060.842,989.104l0.955-54.582l11.169-87.458l-86.311-102.156l-139.17,10.869
				c0,0-18.55,14.226,0.17,25.789c18.72,11.563,121.24,21.437,121.24,21.437l-27.275,101.749l15.087,121.755l10.846,95.491h132.516
				L1060.842,989.104z"/>
			<g>
				<g>
					<path style="fill:#B9BABC;" d="M854.001,737.248L723.798,532.254l-37.027-37.652c-0.325-0.33-1.187,0.227-1.01,0.653
						l20.089,48.399l130.202,204.994L854.001,737.248z"/>
					<polygon style="opacity:0.15;fill:#2B2A2A;" points="843.685,720.664 827.776,735.316 778.8,658.533 					"/>
				</g>
				<g>
					<g>
						
							<ellipse transform="matrix(0.8441 -0.5361 0.5361 0.8441 -270.1369 573.6621)" style="fill:#861B2E;" cx="851.514" cy="751.412" rx="82.805" ry="32.001"/>
						
							<ellipse transform="matrix(0.8441 -0.5361 0.5361 0.8441 -272.3762 576.2051)" style="fill:#7D1B2E;" cx="854.768" cy="756.534" rx="80.753" ry="31.209"/>
					</g>
					<path style="fill:#861B2E;" d="M877.29,885.484c8.77-1.239,23.031-6.989,46.023-20.904
						c13.81-8.358,25.118-17.333,31.909-23.788c8.376-6.773,12.385-18.111,8.616-24.045l-0.151-0.238
						c-4.124-6.492-15.601-6.59-25.635-0.216l-3.292,2.091l-35.889-69.645c0.58-1.434,0.642-2.606,0.11-3.442
						c-2.864-4.509-21.8,2.389-42.295,15.406c-20.495,13.017-34.788,27.225-31.924,31.734c0.692,1.089,2.329,1.507,4.691,1.339
						l47.294,61.455l-3.292,2.091c-10.034,6.373-14.825,16.803-10.701,23.295l0.151,0.238
						C865.507,884.953,871.04,886.5,877.29,885.484z"/>
				</g>
			</g>
			<path style="fill:#EDD0B3;" d="M958.875,1027.625c-3.462-2.091-18.022-28.471-21.379-33.802
				c-12.714-20.19-20.838-36.407-35.852-54.951c-11.669-14.411-29.747-40.733-29.392-43.132c1.007-6.813-0.224-13.751,0.52-20.599
				c2.029-18.682,4.058-37.364,6.088-56.049c1.561-14.374,5.794-44.486,24.861-46.186c19.838-1.769,23.489,25.677,21.125,39.691
				c-2.189,12.977-6.972,26.036-4.453,38.953c3.111,15.947,16.4,27.494,26.9,39.893c26.072,30.788,43.802,16.533,29.645,113.232
				c-1.04,7.101-3.615,17.082-10.122,21.39C963.141,1028.498,960.667,1028.708,958.875,1027.625z"/>
		</g>
		<path style="fill:#6A8678;" d="M929.485,1121.997H1122l-34.117-119.405c0,0-141.34,19.495-158.399,17.058V1121.997z"/>
	</g>
	<g>
		<path style="fill:#FFFFF5;" d="M695.102,419.246c1.529,6.174,0.994,32.65-1.386,33.779c-2.475,1.174-15.461-23.054-16.99-29.228
			c-1.529-6.174,1.345-12.197,6.42-13.454C688.22,409.086,693.573,413.073,695.102,419.246z"/>
		<path style="fill:#FFFFF5;" d="M736.468,432.344c-3.313,5.43-22.507,23.674-24.983,22.776c-2.575-0.933,5.509-27.206,8.822-32.636
			c3.312-5.43,9.615-7.624,14.078-4.901C738.848,420.306,739.781,426.915,736.468,432.344z"/>
		<path style="fill:#FFFFF5;" d="M745.658,482.547c-6.328-0.637-31.082-10.046-31.345-12.667c-0.273-2.725,26.911-6.806,33.24-6.17
			s11.034,5.369,10.511,10.571C757.541,479.483,751.986,483.184,745.658,482.547z"/>
	</g>
</g>
</svg>
